<svg id="Layer_1" data-name="Layer 1" xmlns="http://www.w3.org/2000/svg" viewBox="0 0 318.09 281.59"><title>Artboard 1</title><path d="M316.82,130.59c-.1-5.58-2.83-10.07-7.16-13.74-5.59,3-10.87,5.94-16.29,8.62-4.76,2.35-9.77,4.19-14.5,6.6-5,2.54-9.72,5.59-14.67,8.23-7.46,4-15,7.91-22.54,11.67-4.95,2.45-10.06,4.57-15.12,6.81-4.42,2-8.83,3.95-13.29,5.81-3.51,1.46-7.12,2.65-10.62,4.13s-7.07,1.09-10.65.87a2.2,2.2,0,0,1-1.35-.92c-3.13-4.49-.76-11.84,1.81-14.26s5.39-4.64,7.15-7.53c1-1.73,2.93-2.11,3.81-3.86s2.37-2.89,3.57-4.34c2.28-2.74,4.59-5.46,6.8-8.26,1.86-2.36,3.18-5.36,5.46-7.14a40.09,40.09,0,0,0,10.87-13.66c.39-.74.34-1.76.82-2.4,2.29-3,4.7-5.92,7.07-8.88a33,33,0,0,0,2.06-2.65c1.4-2.12,2.78-4.26,4.06-6.45,2.58-4.42,5.09-8.89,7.87-13.76,1-1.22,2.71-2.71,3.61-4.6a78.46,78.46,0,0,0,4.32-11.14,11.71,11.71,0,0,0,.3-6.41c-.77-2.45-2.61-4.55-4.17-7.1a28.76,28.76,0,0,0-2.61,1.89c-2.28,2.11-4.61,4.19-6.75,6.44C240.87,60.7,235,66.8,229.42,73.14c-3.49,4-6.55,8.32-9.76,12.53-2.35,3.09-4.84,6.12-6.9,9.4-4.25,6.77-8.25,13.69-12.35,20.54-1.47,2.45-3.06,4.82-4.41,7.33-3.06,5.68-6,11.4-9,17.13-1.85,3.59-2.51,7.8-6.14,10.43-1.26.91-1.9,2.67-2.86,4a7.57,7.57,0,0,1-1.45,1.68c-3.33,2.53-6.63,5.12-10.09,7.48a81.39,81.39,0,0,1-8.6,5.06c-3,1.56-4.91.45-5.48-2.91-.12-.75-.31-1.49-.5-2.22a28.37,28.37,0,0,1-.13-14,34.73,34.73,0,0,1,3.05-8,48.84,48.84,0,0,1,5.48-7.87c2.64-3.17,5.7-6,8.36-9.15a65.42,65.42,0,0,0,4.22-6.27c.73-1.13,1.5-2.23,2.14-3.41a27.46,27.46,0,0,0,1.12-2.92,15.49,15.49,0,0,0,5.32-6.26c1.77-3.73,3.2-7.77,5.7-11,1.81-2.3,4-4.28,5-7.13.73-2.16,1-4.47,1.83-6.59,1.75-4.55,1.85-8.8-1.17-12.94-1.43-2-2.12-2.24-3.6-.42-4.3,5.26-8.87,10.34-12.74,15.9C170,92.88,163.72,102.31,158,112c-3,5.12-4.84,11-7.23,16.47-1.39,3.21-2.62,6.45-5.87,8.54a21.16,21.16,0,0,0-5.52,5.28c-3.45,4.72-8.06,8.11-12.6,11.57-5.82,4.44-11.64,8.88-17.68,13a118.78,118.78,0,0,1-12.76,7.38c-2.47,1.27-4.32,0-5.2-2.62-1.4-4.19-.82-8.27.41-12.33a12.59,12.59,0,0,1,1.61-3.58c2.33-3.35,4.85-6.56,7.2-9.89,2-2.78,3.87-5.6,5.66-8.49q5.46-8.82,10.75-17.74a35.79,35.79,0,0,0,3.16-6.35c1.78-5.15-.35-9.77-5.1-11.39a8.64,8.64,0,0,0-1.37,1.28c-6.17,9-12.7,17.8-18.32,27.13-3.76,6.24-6.2,13.26-9.26,19.91A12.76,12.76,0,0,1,84,153.37c-6,6.63-11.19,14-18.12,19.69-4.2,3.47-7.48,8.21-13.39,9.39-3.37.67-6.36-1.22-6.14-4.74.35-5.66.81-11.32,1.62-16.93,1-7,2.32-14,5.28-20.54,1-2.21,1.27-4.76,2-7.12,1.06-3.54,2.09-7.09,3.35-10.55,1.12-3.08,2.52-6,3.83-9,3.09-7.09,6.1-14.22,9.33-21.24,2.55-5.54,5.39-10.94,8.07-16.41a42.47,42.47,0,0,1,2.4-5.2c1.66-2.48,3.65-4.74,5.49-7.11a11.47,11.47,0,0,0,2.06-2.93,28.31,28.31,0,0,1,7.79-12.24c1.39-1.25,3.46-2.28,4-3.82A19.46,19.46,0,0,1,107,36.1a108.43,108.43,0,0,0,11.76-11.52,85.25,85.25,0,0,1,9.1-8.27c2.73-2.31,5.59-4.46,8.41-6.66,3.46-2.72,6.5-6.23,11.43-6.32.11,0,.22-.28.33-.43-1.18-2.56-2.48-3.25-4.85-2-3.47,1.84-6.78,4-10.16,6a23.91,23.91,0,0,0-3.62,2.2q-8.07,7-16,14.14a22.2,22.2,0,0,0-2.24,2.5,56.77,56.77,0,0,1-4.07,5c-1.74,1.69-4,2.86-5.66,4.62-2.8,3-5.35,6.16-7.91,9.34a101.13,101.13,0,0,0-6.84,9c-3.28,5.21-6.27,10.6-9.29,16-4.24,7.53-8.59,15-12.55,22.68-3.36,6.53-6.26,13.29-9.29,20-1.76,3.87-3.57,7.73-5,11.73a168.48,168.48,0,0,0-5.08,16.38c-1.92,7.94-3.61,16-5,24a49,49,0,0,0-.28,11.55c.47,6.8,4.88,11.25,10.21,14.61,4,2.51,8.34.9,11.46-1.74,6-5,11.35-10.79,17.06-16.15,1-.91,2.71-2.16,3.49-1.83,1.09.46,1.61,2.26,2.36,3.49.65,1.08,1.19,2.24,1.93,3.26a25.29,25.29,0,0,0,1.91,1.81c1.92,2.14,3.73,3.95,7.13,3.89a21.65,21.65,0,0,0,9.41-2.58c8.45-4.06,15.59-9.93,22.91-15.57,4.94-3.81,9.68-7.89,14.63-12,.43,2.28.9,4.47,1.23,6.68,1,6.65,1.93,13.31,8.92,16.76.16.08.25.28.38.42,2.53,2.72,5,3.29,8.39,1.57,3.7-1.91,7.36-3.94,10.94-6.09,2-1.19,3.75-2.75,5.63-4.11.75-.53,1.56-1,1.82-1.13,2,2.1,3.67,3.88,5.35,5.68.18.2.16.57.35.75,1.37,1.36,2.54,3.24,4.2,3.91,4.84,1.93,10.07,2.79,15.11,1.35a122.57,122.57,0,0,0,19.32-6.89c7.14-3.43,14.87-5.7,21.36-10.45.36-.26.92-.23,1.35-.41a72.54,72.54,0,0,0,7.07-3c3.66-2,7.09-4.42,10.77-6.35,7-3.65,14.05-7,21-10.61,5.24-2.69,10.37-5.59,15.63-8.24,1.28-.65,2.87-.69,4.67-1.08a28.14,28.14,0,0,1,0,4.37c-1.26,7.28-2.22,14.66-4.05,21.8-2.43,9.5-7.14,18.06-13,25.89-4.61,6.17-9.62,12-14.56,17.95-3.29,4-6.71,7.8-10.17,11.6-4.76,5.2-9.6,10.33-14.42,15.47-5.12,5.47-10.27,10.91-15.37,16.39-2.38,2.55-5.6,4.81-6.81,7.85-1.93,4.86-6.07,6.76-9.23,9.69-.4,1.37-.39,3.17-1.28,4.1-3.32,3.44-4.14,8.85-8.81,11.19-.11.06-.09.35-.12.54,1.33,1.64,5.38,2.14,7.26.48,4-3.55,7.82-7.29,11.61-11.07,4-4,7.83-8.18,11.82-12.18,1.06-1.07,2.57-1.68,3.65-2.72,3.66-3.53,7.31-7.07,10.79-10.77,4-4.28,9.18-7.5,12.08-12.86a14.15,14.15,0,0,1,2.54-3c1.69-1.72,3.49-3.35,5.18-5.07.73-.74,1.26-1.66,2-2.42,3.05-3.25,6.3-6.33,9.15-9.75,4.57-5.48,8.68-11.33,13.33-16.73,4.38-5.08,6.95-11.12,9.77-17,2.15-4.5,3.36-9.47,4.92-14.25A93.52,93.52,0,0,0,316.82,130.59Zm-102-22.86c1.07-1.89,2.2-3.76,3.15-5.72,2.45-5,6.08-9.14,9.61-13.39,1.9-2.29,3.12-5.13,4.69-7.7a25.46,25.46,0,0,1,2-2.75c2.67-3.3,5.2-6.73,8.1-9.82s6.41-6.09,10.08-9.53c0,7.27-35.57,57-45.45,64.55l-.76-.42ZM183.67,84.79c.5.32,1,.64,1.49,1l-15.88,24.39-1.08-.7C172.46,100.65,180,94,183.67,84.79Z"/><path d="M73.81,30.11c-.65,2.67-1.08,5.4-1.6,8.1A8,8,0,0,1,72,39.62c-1.8,4.49-3.65,9-5.43,13.44-.59,1.5-.87,3.12-1.51,4.58-2.3,5.21-4.85,10.32-7,15.58-2.35,5.71-4.3,11.58-6.58,17.32-1.89,4.77-4.07,9.42-6,14.17-1.42,3.51-2.59,7.13-3.94,10.67-.81,2.1-1.81,4.13-2.63,6.22-.71,1.82-1.17,3.73-1.93,5.52-1.91,4.52-3.95,9-5.89,13.5-1.46,3.38-2.79,6.82-4.28,10.18-.81,1.81-2,3.45-2.74,5.28-.92,2.28-1.43,4.71-2.33,7-.72,1.83-1.79,3.53-2.63,5.32q-2.72,5.76-5.36,11.55c-.35.77-.55,1.62-.94,2.37a35.6,35.6,0,0,0-4.26,15.27c-.07,1.89-.12,4-2.72,4.33s-4.21-1.53-4.77-4.15C-.2,191.87,2.6,187,4.72,182c4-9.38,8-18.72,12-28.07,4.24-9.89,8.51-19.77,12.7-29.68C33.32,115,37.05,105.75,41,96.58c4.37-10.15,9-20.21,13.35-30.35,3.24-7.51,6.36-15.06,9.43-22.64.52-1.28.38-2.81.75-4.18,1.33-5,2.74-9.93,4.12-14.88C72.54,24.77,74.47,27.38,73.81,30.11Z"/></svg>